<svg version="1.1" id="Layer_1" xmlns="http://www.w3.org/2000/svg" xmlns:xlink="http://www.w3.org/1999/xlink" x="0px" y="0px"
	 width="100%" viewBox="0 0 1920 1080" enable-background="new 0 0 1920 1080" xml:space="preserve">
<path fill="#FFFFFF" opacity="1.000000" stroke="none" 
	d="
M1412.605957,236.402939 
	C1412.962524,278.740967 1412.995605,320.733795 1412.997559,362.726624 
	C1413.004272,504.537323 1413.000000,646.348022 1413.000000,788.158752 
	C1413.000000,789.954956 1413.000000,791.751160 1413.000000,793.771240 
	C1391.928711,793.771240 1371.192505,793.771240 1350.059326,793.771240 
	C1350.059326,773.924133 1350.059326,754.180054 1350.059326,734.489868 
	C1341.066772,733.366272 1341.143433,733.410339 1337.023071,740.580078 
	C1326.523315,758.850586 1311.128174,772.058777 1293.525269,783.180054 
	C1275.765503,794.400391 1256.136230,800.422974 1235.779907,803.763916 
	C1220.125000,806.333252 1204.224243,805.887939 1188.295410,804.200439 
	C1172.584351,802.536194 1157.372314,799.201904 1142.614380,793.915527 
	C1124.478516,787.419250 1107.825806,778.225891 1092.532837,766.262634 
	C1074.880371,752.453674 1060.465576,735.983521 1049.436279,716.687683 
	C1040.420288,700.914062 1033.030640,684.213318 1029.165771,666.383850 
	C1026.330444,653.303894 1024.126221,639.957275 1023.215515,626.622009 
	C1022.007385,608.932800 1021.350403,591.089478 1022.237610,573.401733 
	C1023.471680,548.798035 1028.405640,524.766724 1037.961182,501.820526 
	C1044.919189,485.111908 1053.433105,469.211060 1064.667114,455.146729 
	C1075.018921,442.186798 1086.839600,430.431458 1100.611206,420.812805 
	C1117.919556,408.723938 1136.768066,400.041138 1157.058350,394.464691 
	C1180.254150,388.089722 1204.061401,386.288422 1227.836182,388.254669 
	C1251.798950,390.236420 1274.626343,397.735535 1295.216553,410.229279 
	C1314.159912,421.723846 1329.179810,437.537170 1339.073364,457.653564 
	C1341.590698,462.772186 1345.740356,460.376892 1349.682617,461.112976 
	C1349.682617,386.201569 1349.682617,311.468109 1349.682617,236.057739 
	C1370.791626,236.057739 1391.529907,236.057739 1412.605957,236.402939 
M1339.570923,534.053467 
	C1336.385010,527.415833 1333.451538,520.642212 1329.963867,514.166992 
	C1320.802124,497.157532 1308.349365,483.070251 1292.526123,471.819641 
	C1274.979370,459.343536 1255.884399,451.401733 1234.383057,448.875366 
	C1219.345703,447.108429 1204.379395,447.407135 1189.711426,450.351196 
	C1177.344604,452.833374 1165.611694,457.672821 1154.367554,463.818390 
	C1133.735840,475.094757 1118.183594,491.311462 1106.380005,511.263214 
	C1091.718384,536.045715 1086.671265,563.459961 1086.142212,591.788391 
	C1085.937012,602.772400 1087.244873,613.792358 1088.016602,624.785217 
	C1089.321045,643.364502 1094.229736,661.108398 1103.263062,677.262939 
	C1109.379517,688.201233 1116.617188,698.848694 1125.078735,708.037476 
	C1132.332520,715.914734 1141.579834,722.267822 1150.757568,727.993103 
	C1166.823242,738.015320 1184.727905,743.409424 1203.601685,744.885498 
	C1212.217529,745.559265 1220.985718,745.614441 1229.582764,744.830688 
	C1238.553223,744.012939 1247.696899,742.786560 1256.244751,740.090149 
	C1278.663940,733.018188 1298.158813,721.148376 1313.660889,702.986694 
	C1322.552124,692.570068 1329.762939,681.320862 1335.654663,668.966431 
	C1345.560181,648.195190 1348.679688,626.040405 1349.859131,603.512390 
	C1350.367188,593.806030 1349.447510,584.012939 1348.938232,574.271667 
	C1348.752930,570.728577 1348.100586,567.167542 1347.269897,563.708679 
	C1344.945679,554.032166 1342.416992,544.404724 1339.570923,534.053467 
z"/>
<path fill="#FFFFFF" opacity="1.000000" stroke="none" 
	d="
M892.999573,470.990601 
	C901.487610,483.621826 907.736755,496.969879 911.927917,511.207672 
	C914.827515,521.057922 917.102051,531.095459 919.522095,541.081665 
	C920.246094,544.069275 920.918030,547.164001 920.934875,550.213379 
	C921.054810,571.942139 920.998779,593.671875 920.998779,615.916260 
	C815.590759,615.916260 709.376953,615.916260 603.263550,615.916260 
	C604.311462,633.415771 606.919128,650.082947 612.930664,666.149841 
	C618.411682,680.798706 625.964050,694.049072 636.264099,705.918274 
	C646.563843,717.787109 658.834900,726.778015 672.918030,733.390381 
	C684.939575,739.034790 697.596558,742.703308 710.852295,743.968262 
	C719.668457,744.809509 728.533569,746.075867 737.344177,745.854736 
	C759.819824,745.290527 781.960022,742.014465 802.286682,731.809082 
	C825.817200,719.995056 842.558105,701.624939 852.037292,676.873230 
	C853.297241,673.583435 854.397095,670.170959 856.173279,667.171936 
	C856.836426,666.052063 859.433228,665.149719 860.788940,665.508057 
	C878.480225,670.183289 896.104004,675.113892 913.758606,679.929138 
	C914.665955,680.176575 915.699585,679.960999 917.101135,679.960999 
	C911.994141,696.693665 905.878174,712.523926 895.897705,726.407776 
	C888.309570,736.963501 880.572937,747.665466 871.380676,756.765259 
	C848.227051,779.686157 820.383850,794.170349 788.113586,800.127991 
	C773.120972,802.895935 758.152466,805.096191 742.886475,805.010559 
	C732.883423,804.954468 722.828918,805.645691 712.887451,804.861328 
	C693.996704,803.370789 675.723755,798.816833 657.982117,792.040710 
	C639.564453,785.006348 622.819885,775.037292 608.005493,762.251587 
	C593.942749,750.114685 581.768555,736.057190 572.027588,720.100464 
	C563.048828,705.392517 555.694580,689.908142 550.803955,673.351685 
	C548.621338,665.962585 547.128357,658.369995 544.948364,650.980042 
	C541.671936,639.873230 541.635925,628.424377 541.070923,617.054565 
	C540.429871,604.152649 539.805298,591.211121 540.109375,578.308899 
	C540.751953,551.047852 546.029419,524.689270 557.013733,499.575073 
	C566.021362,478.980316 578.325317,460.524689 594.103760,444.663757 
	C606.134949,432.569580 619.754456,422.236084 634.668518,413.716888 
	C650.221680,404.832611 666.583313,397.876526 683.956177,393.661041 
	C693.213867,391.414703 702.749268,389.830658 712.244873,389.161591 
	C725.950012,388.195831 739.782166,387.451508 753.470276,388.217896 
	C771.553833,389.230316 789.302612,392.966064 806.247742,399.711884 
	C824.797058,407.096344 841.720825,417.371582 857.209717,429.853485 
	C870.785461,440.793610 882.045654,453.942841 891.325745,468.744598 
	C891.761108,469.439026 892.414551,469.996796 892.999573,470.990601 
M753.500000,558.000000 
	C787.925049,558.000000 822.350098,558.000000 856.999451,558.000000 
	C856.999451,553.463745 857.076050,549.485168 856.954407,545.512634 
	C856.916138,544.261597 856.249390,543.043335 856.033752,541.782166 
	C852.204956,519.379700 841.342346,500.592834 825.819153,484.452301 
	C814.801453,472.996582 801.349548,464.796478 786.858276,458.446838 
	C774.260315,452.926849 761.005737,448.829620 747.319885,448.261566 
	C734.211975,447.717529 720.925110,448.599609 707.879456,450.188965 
	C692.436462,452.070404 678.230042,458.199066 664.768982,466.002136 
	C648.633118,475.355713 635.528381,488.041382 625.348083,503.450623 
	C614.523376,519.835205 607.590210,537.935913 605.069275,558.000000 
	C654.247131,558.000000 703.373596,558.000000 753.500000,558.000000 
z"/>
<path fill="#FFFFFF" opacity="1.000000" stroke="none" 
	d="
M398.001709,457.014038 
	C406.794617,472.992523 411.702576,489.890106 415.010925,507.345428 
	C418.644958,526.518982 419.101624,545.876099 419.062042,565.326416 
	C418.908142,640.985779 418.996735,716.645569 418.991821,792.305237 
	C418.991821,792.634644 418.943756,792.964111 418.890625,793.646606 
	C398.181244,793.646606 377.442139,793.646606 356.000000,793.646606 
	C356.000000,792.171448 356.000000,790.423828 356.000000,788.676147 
	C356.000000,712.016602 356.320953,635.354858 355.817474,558.698669 
	C355.652069,533.515381 349.955292,509.091431 335.791779,487.818756 
	C324.879089,471.428558 309.646820,460.194794 290.575806,453.561798 
	C273.777832,447.719421 256.694305,446.926331 239.628342,448.279083 
	C217.470779,450.035431 197.009583,457.360992 179.451004,471.915649 
	C157.162338,490.391266 144.626892,514.407104 138.008087,542.018677 
	C134.409088,557.032532 132.921127,572.255432 132.948792,587.710815 
	C133.068390,654.537720 133.000000,721.364990 133.000000,788.192139 
	C133.000000,789.985413 133.000000,791.778748 133.000000,793.783203 
	C111.903488,793.783203 91.166382,793.783203 70.214439,793.783203 
	C70.214439,607.909180 70.214439,422.182892 70.214439,236.228287 
	C91.073242,236.228287 111.810379,236.228287 132.940903,236.228287 
	C132.940903,314.077972 132.940903,391.815796 132.940903,469.776245 
	C136.090195,469.776245 138.857834,469.776245 141.520950,469.776245 
	C148.983719,456.259949 156.748199,443.124908 167.502350,431.780304 
	C179.128448,419.515930 191.960678,409.044342 207.044998,401.558685 
	C219.353226,395.450745 232.401901,391.151703 246.180740,390.085785 
	C259.978851,389.018463 273.906097,387.442596 287.644928,388.272430 
	C311.213104,389.695953 333.607819,395.975281 353.732666,409.153290 
	C372.416565,421.387726 387.011353,437.275726 398.001709,457.014038 
z"/>
<path fill="#FFFFFF" opacity="1.000000" stroke="none" 
	d="
M1653.195801,392.018097 
	C1673.724609,387.277344 1694.200562,387.287445 1714.576538,388.194122 
	C1731.534302,388.948669 1748.232910,392.183136 1764.362427,397.956390 
	C1789.270142,406.871643 1811.326050,420.187714 1828.676880,440.329163 
	C1842.108154,455.920807 1850.750854,474.205200 1855.960449,494.090332 
	C1857.101685,498.446320 1858.015015,502.863434 1858.972534,507.265594 
	C1859.572998,510.026093 1858.307129,511.372894 1855.598877,512.026001 
	C1838.248779,516.210144 1820.927734,520.515564 1803.581787,524.716797 
	C1802.223267,525.045776 1800.746216,524.885559 1799.275024,524.955078 
	C1797.254883,501.160492 1787.664551,481.374969 1769.616943,466.311646 
	C1756.019043,454.962280 1739.945801,448.354126 1722.341919,446.084229 
	C1713.406982,444.932068 1704.310303,443.732635 1695.369507,444.186005 
	C1673.894409,445.274902 1652.735596,448.723877 1634.992065,462.131287 
	C1624.437012,470.106873 1616.842651,480.206573 1614.802612,494.234375 
	C1612.444214,510.451385 1617.125244,524.242371 1627.642700,535.792297 
	C1635.647339,544.582642 1646.591431,549.861755 1658.058472,552.816528 
	C1671.153931,556.190857 1684.485596,558.891724 1697.865845,560.854248 
	C1713.522949,563.150635 1729.389282,563.990173 1745.082642,566.079163 
	C1771.569092,569.604980 1797.358276,575.924561 1820.712769,589.427734 
	C1835.957031,598.241699 1848.794189,609.813965 1857.024780,625.875916 
	C1863.671875,638.848145 1866.972900,652.476624 1868.227661,667.056763 
	C1869.892212,686.401550 1868.469116,705.217712 1861.882080,723.367737 
	C1855.240479,741.667908 1844.012573,756.792114 1829.114746,769.658997 
	C1809.683472,786.441589 1786.671509,794.839172 1762.422852,800.676086 
	C1754.246704,802.644165 1745.686890,803.136658 1737.268066,803.947449 
	C1727.953369,804.844482 1718.545654,806.299011 1709.274536,805.782959 
	C1693.819214,804.922546 1678.383179,803.094421 1663.041992,800.940308 
	C1635.594116,797.086243 1610.781128,786.084106 1588.797974,769.643066 
	C1578.671753,762.069763 1570.413696,751.857605 1561.881348,742.329102 
	C1550.276855,729.369751 1543.374634,713.699890 1538.759644,697.158081 
	C1535.522583,685.555603 1533.514160,673.610413 1530.899780,661.554810 
	C1551.917969,656.486389 1571.709229,651.713806 1590.192993,647.256531 
	C1594.272461,660.924255 1597.658936,674.501099 1602.490723,687.542419 
	C1605.008057,694.337036 1609.551147,700.597961 1614.095215,706.380249 
	C1623.863403,718.810181 1635.972900,728.461426 1650.462036,735.150879 
	C1663.486694,741.164062 1676.995605,745.118103 1691.306519,745.947449 
	C1701.707764,746.550232 1712.181885,747.440369 1722.544922,746.842285 
	C1745.609375,745.511230 1767.722534,740.188660 1786.057617,725.214233 
	C1798.113892,715.367920 1805.031738,702.526611 1805.134277,686.252686 
	C1805.217041,673.139221 1804.344849,660.657410 1796.230835,649.545471 
	C1789.519165,640.353760 1780.350708,635.020081 1770.104614,630.971375 
	C1754.517822,624.812134 1738.274414,621.607117 1721.662720,619.995728 
	C1707.994629,618.669922 1694.295288,617.597351 1680.667358,615.939880 
	C1658.222412,613.210083 1636.188843,608.769592 1615.232788,599.767700 
	C1602.485352,594.291931 1590.569946,587.415466 1580.708618,577.818359 
	C1568.506104,565.942810 1560.093140,551.532837 1555.962036,534.746277 
	C1552.245605,519.645203 1551.954956,504.229187 1553.263916,489.052307 
	C1555.224121,466.323303 1564.848633,446.757996 1581.069702,430.250793 
	C1600.585083,410.391113 1624.310059,399.006927 1651.031982,392.949554 
	C1651.646851,392.810181 1652.187988,392.346497 1653.195801,392.018097 
z"/>
<path fill="#000000" opacity="1.000000" stroke="none" 
	d="
M1339.770020,534.405640 
	C1342.416992,544.404724 1344.945679,554.032166 1347.269897,563.708679 
	C1348.100586,567.167542 1348.752930,570.728577 1348.938232,574.271667 
	C1349.447510,584.012939 1350.367188,593.806030 1349.859131,603.512390 
	C1348.679688,626.040405 1345.560181,648.195190 1335.654663,668.966431 
	C1329.762939,681.320862 1322.552124,692.570068 1313.660889,702.986694 
	C1298.158813,721.148376 1278.663940,733.018188 1256.244751,740.090149 
	C1247.696899,742.786560 1238.553223,744.012939 1229.582764,744.830688 
	C1220.985718,745.614441 1212.217529,745.559265 1203.601685,744.885498 
	C1184.727905,743.409424 1166.823242,738.015320 1150.757568,727.993103 
	C1141.579834,722.267822 1132.332520,715.914734 1125.078735,708.037476 
	C1116.617188,698.848694 1109.379517,688.201233 1103.263062,677.262939 
	C1094.229736,661.108398 1089.321045,643.364502 1088.016602,624.785217 
	C1087.244873,613.792358 1085.937012,602.772400 1086.142212,591.788391 
	C1086.671265,563.459961 1091.718384,536.045715 1106.380005,511.263214 
	C1118.183594,491.311462 1133.735840,475.094757 1154.367554,463.818390 
	C1165.611694,457.672821 1177.344604,452.833374 1189.711426,450.351196 
	C1204.379395,447.407135 1219.345703,447.108429 1234.383057,448.875366 
	C1255.884399,451.401733 1274.979370,459.343536 1292.526123,471.819641 
	C1308.349365,483.070251 1320.802124,497.157532 1329.963867,514.166992 
	C1333.451538,520.642212 1336.385010,527.415833 1339.770020,534.405640 
z"/>
<path fill="#000000" opacity="1.000000" stroke="none" 
	d="
M753.000000,558.000000 
	C703.373596,558.000000 654.247131,558.000000 605.069275,558.000000 
	C607.590210,537.935913 614.523376,519.835205 625.348083,503.450623 
	C635.528381,488.041382 648.633118,475.355713 664.768982,466.002136 
	C678.230042,458.199066 692.436462,452.070404 707.879456,450.188965 
	C720.925110,448.599609 734.211975,447.717529 747.319885,448.261566 
	C761.005737,448.829620 774.260315,452.926849 786.858276,458.446838 
	C801.349548,464.796478 814.801453,472.996582 825.819153,484.452301 
	C841.342346,500.592834 852.204956,519.379700 856.033752,541.782166 
	C856.249390,543.043335 856.916138,544.261597 856.954407,545.512634 
	C857.076050,549.485168 856.999451,553.463745 856.999451,558.000000 
	C822.350098,558.000000 787.925049,558.000000 753.000000,558.000000 
z"/>
</svg>