<svg id="Layer_1" data-name="Layer 1" xmlns="http://www.w3.org/2000/svg" viewBox="0 0 27.11 8.57">
    <defs>
        <style>.cls-1{fill:#ffffff;}</style>
    </defs>
    <path class="cls-1"
        d="M201.83,112.58h-.94V104h.94v3.53h0a2.51,2.51,0,0,1,.92-.91,2.13,2.13,0,0,1,1.21-.34,2.07,2.07,0,0,1,1.58.65,2.67,2.67,0,0,1,.61,1.92v3.72h-.94v-3.53a2,2,0,0,0-.42-1.4,1.46,1.46,0,0,0-1.14-.47,1.68,1.68,0,0,0-1.34.58,2.38,2.38,0,0,0-.48,1.56Z"
        transform="translate(-200.89 -104.01)" />
    <path class="cls-1"
        d="M208.92,109.73a2.09,2.09,0,0,0,.55,1.42,1.92,1.92,0,0,0,1.44.54,2.6,2.6,0,0,0,.73-.09,1.71,1.71,0,0,0,.54-.27,1.33,1.33,0,0,0,.36-.39,2.26,2.26,0,0,0,.22-.47l.89.24a2.67,2.67,0,0,1-.93,1.35,2.91,2.91,0,0,1-1.83.52,2.94,2.94,0,0,1-1.17-.22,2.69,2.69,0,0,1-.92-.63,2.83,2.83,0,0,1-.6-1,3.56,3.56,0,0,1-.22-1.25v-.29a3,3,0,0,1,.23-1.16,2.69,2.69,0,0,1,.61-.93,2.89,2.89,0,0,1,.93-.61,3,3,0,0,1,1.16-.23,2.8,2.8,0,0,1,1.27.27,2.84,2.84,0,0,1,.87.67,2.61,2.61,0,0,1,.51.86,2.64,2.64,0,0,1,.16.87v.77Zm2-2.55a2.05,2.05,0,0,0-1.34.48,1.87,1.87,0,0,0-.42.54,2.32,2.32,0,0,0-.21.66h3.84a1.57,1.57,0,0,0-.18-.69,1.7,1.7,0,0,0-.42-.53,1.82,1.82,0,0,0-.59-.34A2,2,0,0,0,210.91,107.18Z"
        transform="translate(-200.89 -104.01)" />
    <path class="cls-1"
        d="M220.19,111.5H220a1.44,1.44,0,0,1-.36.48,2.21,2.21,0,0,1-.48.34,2.58,2.58,0,0,1-.55.2,2.64,2.64,0,0,1-.55.06,3.18,3.18,0,0,1-1.12-.2,2.7,2.7,0,0,1-.9-.59,2.59,2.59,0,0,1-.61-1,3.56,3.56,0,0,1-.23-1.31v-.19a3.49,3.49,0,0,1,.23-1.29,2.92,2.92,0,0,1,.61-1,2.56,2.56,0,0,1,.9-.59,2.91,2.91,0,0,1,1.1-.21,2.49,2.49,0,0,1,1.14.27,2.14,2.14,0,0,1,1,.84h0V104h.93v8.57h-.93Zm-2,.19a2,2,0,0,0,.78-.15,1.87,1.87,0,0,0,.63-.45,2,2,0,0,0,.42-.69,2.28,2.28,0,0,0,.16-.89v-.14a2.35,2.35,0,0,0-.16-.89,2.2,2.2,0,0,0-.42-.69,2.06,2.06,0,0,0-.64-.45,2,2,0,0,0-.77-.16,2,2,0,0,0-1.43.6,2,2,0,0,0-.42.69,2.41,2.41,0,0,0-.15.87v.19a2.5,2.5,0,0,0,.15.9,2,2,0,0,0,.42.68,1.81,1.81,0,0,0,.63.43A2.07,2.07,0,0,0,218.2,111.69Z"
        transform="translate(-200.89 -104.01)" />
    <path class="cls-1"
        d="M224.16,108a.72.72,0,0,0,.37.66,3.24,3.24,0,0,0,1.33.3,2.91,2.91,0,0,1,1.59.5,1.39,1.39,0,0,1,.55,1.2v.07a1.64,1.64,0,0,1-.65,1.36,2.39,2.39,0,0,1-.75.37,4,4,0,0,1-2.15-.06,2.47,2.47,0,0,1-.82-.5,2,2,0,0,1-.5-.69,2.23,2.23,0,0,1-.19-.79l.88-.21a1.58,1.58,0,0,0,.53,1.09,1.8,1.8,0,0,0,1.25.42,2,2,0,0,0,1.06-.26.81.81,0,0,0,.4-.73.77.77,0,0,0-.39-.72,3.43,3.43,0,0,0-1.29-.27,3,3,0,0,1-1.58-.48,1.38,1.38,0,0,1-.55-1.19V108a1.47,1.47,0,0,1,.18-.74,1.62,1.62,0,0,1,.48-.53,2.2,2.2,0,0,1,.69-.33,3.1,3.1,0,0,1,.81-.11,3,3,0,0,1,1,.17,2,2,0,0,1,.74.42,1.89,1.89,0,0,1,.47.59,2.88,2.88,0,0,1,.21.67l-.89.22a1.28,1.28,0,0,0-.46-.9,1.61,1.61,0,0,0-1-.33,2,2,0,0,0-.49.06,1.25,1.25,0,0,0-.41.16.84.84,0,0,0-.29.27A.68.68,0,0,0,224.16,108Z"
        transform="translate(-200.89 -104.01)" />
</svg>