<svg width="1036" height="1036" viewBox="0 0 1036 1036" fill="none" xmlns="http://www.w3.org/2000/svg">
<rect width="1036" height="1036" rx="237" fill="url(#paint0_linear_903_4269)"/>
<path d="M565.13 260.624C475.69 206.881 376.856 177.194 269.63 171.866C244.347 170.61 238.1 170.684 230.541 172.329C210.808 176.622 194.48 193.763 191.182 213.646C189.555 223.455 190.081 304.595 190.081 304.595L190.082 306.637L190.356 422.991L190.63 539.345L192.885 545.265C199.385 562.333 212.168 574.096 228.63 578.157C231.93 578.971 241.155 579.902 249.13 580.227C304.997 582.498 355.276 603.885 395.012 642.28C436.667 682.529 460.443 735.375 462.753 792.845C463.074 800.82 463.973 810.224 464.753 813.742C468.399 830.208 480.514 843.509 497.928 850.166L503.63 852.345L619.88 852.619L735.629 852.345H738.63L780.13 852.62C805.61 852.788 824.332 852.487 828.63 851.84C850.074 848.611 867.742 830.961 871.168 809.345C872.434 801.356 871.803 778.348 869.538 749.998C853.393 547.842 740.151 365.791 565.13 260.624Z" fill="#EE421B"/>
<mask id="mask0_903_4269" style="mask-type:alpha" maskUnits="userSpaceOnUse" x="190" y="171" width="682" height="682">
<path d="M565.13 260.624C475.69 206.881 376.856 177.194 269.63 171.866C244.347 170.61 238.1 170.684 230.541 172.329C210.808 176.622 194.48 193.763 191.182 213.646C189.555 223.455 190.081 304.595 190.081 304.595L190.082 306.637L190.356 422.991L190.63 539.345L192.885 545.265C199.385 562.333 212.168 574.096 228.63 578.157C231.93 578.971 241.155 579.902 249.13 580.227C304.997 582.498 355.276 603.885 395.012 642.28C436.667 682.529 460.443 735.375 462.753 792.845C463.074 800.82 463.973 810.224 464.753 813.742C468.399 830.208 480.514 843.509 497.928 850.166L503.63 852.345L619.88 852.619L735.629 852.345H738.63L780.13 852.62C805.61 852.788 824.332 852.487 828.63 851.84C850.074 848.611 867.742 830.961 871.168 809.345C872.434 801.356 871.803 778.348 869.538 749.998C853.393 547.842 740.151 365.791 565.13 260.624Z" fill="url(#paint1_radial_903_4269)"/>
</mask>
<g mask="url(#mask0_903_4269)">
<g filter="url(#filter0_f_903_4269)">
<path d="M758 61.5001C668.56 7.7571 404.726 23.8281 297.5 18.5001C272.217 17.2441 46.5589 170.221 38.9999 171.866C19.2669 176.159 2.93887 193.3 -0.359131 213.183C28.0803 208.217 329.519 211.123 418.319 260.624C529.319 322.5 612.819 348 684.319 444.5C755.819 541 812.87 685 831 763C845.504 825.4 823 1063.72 823 1068C844.444 1064.77 1065.57 844.616 1069 823C1070.27 815.011 1013.77 675.35 1011.5 647C995.355 444.844 933.021 166.667 758 61.5001Z" fill="#8753C8"/>
</g>
</g>
<path fill-rule="evenodd" clip-rule="evenodd" d="M735 852.346V800C735 527.724 514.276 307 242 307H190.083L190.356 422.991L190.63 539.345L192.885 545.265C199.385 562.333 212.168 574.096 228.63 578.157C231.93 578.971 241.155 579.902 249.13 580.227C304.997 582.498 355.275 603.885 395.012 642.28C436.667 682.529 460.442 735.375 462.752 792.845C463.074 800.82 463.973 810.224 464.752 813.742C468.398 830.208 480.514 843.509 497.928 850.166L503.629 852.345L619.879 852.619L735 852.346Z" fill="#FFF000"/>
<mask id="mask1_903_4269" style="mask-type:alpha" maskUnits="userSpaceOnUse" x="190" y="307" width="545" height="546">
<path fill-rule="evenodd" clip-rule="evenodd" d="M735 852.346V800C735 527.724 514.276 307 242 307H190.083L190.356 422.991L190.63 539.345L192.885 545.265C199.385 562.333 212.168 574.096 228.63 578.157C231.93 578.971 241.155 579.902 249.13 580.227C304.997 582.498 355.276 603.885 395.012 642.28C436.667 682.529 460.443 735.375 462.753 792.845C463.074 800.82 463.973 810.224 464.753 813.742C468.399 830.208 480.514 843.509 497.928 850.166L503.63 852.345L619.88 852.619L735 852.346Z" fill="url(#paint2_radial_903_4269)"/>
</mask>
<g mask="url(#mask1_903_4269)">
<g filter="url(#filter1_f_903_4269)">
<path d="M758 197.5C668.56 143.757 404.726 159.828 297.5 154.5C272.217 153.244 46.5589 306.221 38.9999 307.866C19.2669 312.159 2.93887 329.3 -0.359131 349.183C28.0803 344.217 329.519 347.123 418.319 396.624C529.319 458.5 550.5 492 622 588.5C693.5 685 692.37 889 710.5 967C725.004 1029.4 802.5 1191.72 802.5 1196C823.944 1192.77 1065.57 980.616 1069 959C1070.27 951.011 1013.77 811.35 1011.5 783C995.355 580.844 933.021 302.667 758 197.5Z" fill="#FF9B00"/>
</g>
</g>
<path fill-rule="evenodd" clip-rule="evenodd" d="M600.991 852.599C600.997 851.733 601 850.867 601 850V809C601 607.416 437.584 444 236 444H197C194.797 444 192.599 444.02 190.405 444.058L190.63 539.345L192.885 545.265C199.385 562.333 212.168 574.096 228.63 578.157C231.93 578.971 241.155 579.902 249.13 580.227C304.997 582.498 355.276 603.885 395.012 642.28C436.667 682.529 460.443 735.375 462.753 792.845C463.074 800.82 463.973 810.224 464.753 813.742C468.399 830.208 480.514 843.509 497.928 850.166C497.928 850.166 501.5 852.5 506 852.5L600.991 852.599Z" fill="#00B1E2"/>
<mask id="mask2_903_4269" style="mask-type:alpha" maskUnits="userSpaceOnUse" x="190" y="444" width="411" height="409">
<path fill-rule="evenodd" clip-rule="evenodd" d="M600.991 852.574C600.997 851.717 601 850.859 601 850V809C601 607.416 437.584 444 236 444H197C194.797 444 192.599 444.02 190.405 444.058L190.63 539.345L192.885 545.265C199.385 562.333 212.168 574.096 228.63 578.157C231.93 578.971 241.155 579.902 249.13 580.227C304.997 582.498 355.276 603.885 395.012 642.28C436.667 682.529 460.443 735.375 462.753 792.845C463.074 800.82 463.973 810.224 464.753 813.742C468.399 830.208 480.514 843.509 497.928 850.166L503.63 852.345L600.991 852.574Z" fill="url(#paint3_radial_903_4269)"/>
</mask>
<g mask="url(#mask2_903_4269)">
<g filter="url(#filter2_f_903_4269)">
<path d="M758 334.5C668.56 280.757 404.726 296.828 297.5 291.5C272.217 290.244 46.5589 443.221 38.9999 444.866C19.2669 449.159 2.93887 466.3 -0.359131 486.183C28.0803 481.217 327.2 502.499 416 552C527 613.876 549 796 549 796C549 796 557.87 1084 576 1162C590.504 1224.4 802.5 1328.72 802.5 1333C823.944 1329.77 1065.57 1117.62 1069 1096C1070.27 1088.01 1013.77 948.35 1011.5 920C995.355 717.844 933.021 439.667 758 334.5Z" fill="#00DA42"/>
</g>
</g>
<defs>
<filter id="filter0_f_903_4269" x="-114.359" y="-95.5076" width="1297.38" height="1277.51" filterUnits="userSpaceOnUse" color-interpolation-filters="sRGB">
<feFlood flood-opacity="0" result="BackgroundImageFix"/>
<feBlend mode="normal" in="SourceGraphic" in2="BackgroundImageFix" result="shape"/>
<feGaussianBlur stdDeviation="57" result="effect1_foregroundBlur_903_4269"/>
</filter>
<filter id="filter1_f_903_4269" x="-114.359" y="40.4924" width="1297.38" height="1269.51" filterUnits="userSpaceOnUse" color-interpolation-filters="sRGB">
<feFlood flood-opacity="0" result="BackgroundImageFix"/>
<feBlend mode="normal" in="SourceGraphic" in2="BackgroundImageFix" result="shape"/>
<feGaussianBlur stdDeviation="57" result="effect1_foregroundBlur_903_4269"/>
</filter>
<filter id="filter2_f_903_4269" x="-114.359" y="177.492" width="1297.38" height="1269.51" filterUnits="userSpaceOnUse" color-interpolation-filters="sRGB">
<feFlood flood-opacity="0" result="BackgroundImageFix"/>
<feBlend mode="normal" in="SourceGraphic" in2="BackgroundImageFix" result="shape"/>
<feGaussianBlur stdDeviation="57" result="effect1_foregroundBlur_903_4269"/>
</filter>
<linearGradient id="paint0_linear_903_4269" x1="518" y1="0" x2="518" y2="1036" gradientUnits="userSpaceOnUse">
<stop stop-color="#174197"/>
<stop offset="1" stop-color="#011E5A"/>
</linearGradient>
<radialGradient id="paint1_radial_903_4269" cx="0" cy="0" r="1" gradientUnits="userSpaceOnUse" gradientTransform="translate(479 626.5) rotate(133.13) scale(866.667 866.853)">
<stop stop-color="#EF421B"/>
<stop offset="1" stop-color="#8753C8"/>
</radialGradient>
<radialGradient id="paint2_radial_903_4269" cx="0" cy="0" r="1" gradientUnits="userSpaceOnUse" gradientTransform="translate(427.5 632) rotate(-45.6856) scale(206.844 206.578)">
<stop stop-color="#FFF100"/>
<stop offset="1" stop-color="#FF9A00"/>
</radialGradient>
<radialGradient id="paint3_radial_903_4269" cx="0" cy="0" r="1" gradientUnits="userSpaceOnUse" gradientTransform="translate(567 492.5) rotate(133.925) scale(376.954 378.818)">
<stop stop-color="#05DA40"/>
<stop offset="1" stop-color="#00B1E3"/>
</radialGradient>
</defs>
</svg>
